<?xml version="1.0" encoding="UTF-8" standalone="no"?>
<!-- Created with Inkscape (http://www.inkscape.org/) -->

<svg
   xmlns:dc="http://purl.org/dc/elements/1.1/"
   xmlns:cc="http://creativecommons.org/ns#"
   xmlns:rdf="http://www.w3.org/1999/02/22-rdf-syntax-ns#"
   xmlns:svg="http://www.w3.org/2000/svg"
   xmlns="http://www.w3.org/2000/svg"
   xmlns:sodipodi="http://sodipodi.sourceforge.net/DTD/sodipodi-0.dtd"
   xmlns:inkscape="http://www.inkscape.org/namespaces/inkscape"
   width="130.11394mm"
   height="130.11394mm"
   viewBox="0 0 461.03364 461.03363"
   id="svg2"
   version="1.1"
   inkscape:version="0.91 r13725"
   sodipodi:docname="logo.svg"
   inkscape:export-filename="/Users/davidm/Dev/AndroidStudioProjects/GymCoachBob/graphics/logo.png"
   inkscape:export-xdpi="90"
   inkscape:export-ydpi="90">
  <defs
     id="defs4">
    <inkscape:perspective
       sodipodi:type="inkscape:persp3d"
       inkscape:vp_x="34.285715 : 451.89537 : 1"
       inkscape:vp_y="0 : 999.99998 : 0"
       inkscape:vp_z="744.0945 : 526.18109 : 1"
       inkscape:persp3d-origin="372.04724 : 350.78739 : 1"
       id="perspective3360" />
  </defs>
  <sodipodi:namedview
     id="base"
     pagecolor="#ffffff"
     bordercolor="#666666"
     borderopacity="1.0"
     inkscape:pageopacity="0.0"
     inkscape:pageshadow="2"
     inkscape:zoom="0.70710678"
     inkscape:cx="14.452381"
     inkscape:cy="233.70547"
     inkscape:document-units="px"
     inkscape:current-layer="g4409"
     showgrid="false"
     inkscape:window-width="1280"
     inkscape:window-height="730"
     inkscape:window-x="0"
     inkscape:window-y="1"
     inkscape:window-maximized="1"
     fit-margin-top="0"
     fit-margin-left="0"
     fit-margin-right="0"
     fit-margin-bottom="0" />
  <metadata
     id="metadata7">
    <rdf:RDF>
      <cc:Work
         rdf:about="">
        <dc:format>image/svg+xml</dc:format>
        <dc:type
           rdf:resource="http://purl.org/dc/dcmitype/StillImage" />
        <dc:title />
      </cc:Work>
    </rdf:RDF>
  </metadata>
  <g
     inkscape:groupmode="layer"
     id="layer5"
     inkscape:label="background rectangle border"
     transform="translate(-128.69342,-386.26764)">
    <rect
       style="fill:#e6e6e6"
       id="rect4398"
       width="461.03363"
       height="461.03363"
       x="128.69342"
       y="386.26764" />
  </g>
  <g
     inkscape:label="background rectangle fg"
     id="g4409"
     inkscape:groupmode="layer"
     transform="translate(-128.69342,-386.26764)"
     style="display:inline">
    <rect
       y="386.26764"
       x="128.69342"
       height="461.03363"
       width="461.03363"
       id="rect4411"
       style="fill:#e6e6e6"
       inkscape:export-xdpi="90"
       inkscape:export-ydpi="90" />
  </g>
  <g
     inkscape:groupmode="layer"
     id="layer6"
     inkscape:label="floor"
     style="display:inline">
    <ellipse
       style="fill:#b3b3b3;fill-opacity:1"
       id="path3383"
       cx="273.65033"
       cy="284.2569"
       rx="188.79752"
       ry="19.79899" />
  </g>
  <g
     inkscape:groupmode="layer"
     id="layer4"
     inkscape:label="background circle shadow"
     style="display:none"
     transform="translate(-128.69342,-386.26764)">
    <circle
       style="fill:#333333"
       id="path4282"
       cy="669.81744"
       cx="364.15997"
       r="309.00565" />
  </g>
  <g
     inkscape:label="background circle foreground"
     id="g4286"
     inkscape:groupmode="layer"
     style="display:none"
     transform="translate(-128.69342,-386.26764)">
    <circle
       cx="364.15997"
       cy="669.81744"
       id="circle4288"
       style="fill:#ececec"
       r="304.763" />
  </g>
  <g
     inkscape:groupmode="layer"
     id="layer2"
     inkscape:label="Bar"
     style="display:inline"
     transform="translate(-128.69342,-386.26764)">
    <rect
       id="rect3379"
       width="428.21429"
       height="22.857143"
       x="151.07143"
       y="607.64795" />
    <path
       style="fill:#666666"
       d="m 159.32306,656.10449 0,-26.5 -5.02337,0 -5.02336,0 0,-10.44521 0,-10.44521 4.7722,-0.30479 4.77219,-0.30479 0.27115,-21.25 0.27114,-21.25 39.64463,0 39.64461,0 0.27115,21.25 0.27115,21.25 125.08178,0 125.08178,0 0.27115,-21.25 0.27115,-21.25 39.64461,0 39.64462,0 0.27115,21.25 0.27115,21.25 4.77219,0.30479 4.7722,0.30479 0,10.44521 0,10.44521 -5.02336,0 -5.02337,0 0,26.5 0,26.5 -39.6679,0 -39.66789,0 -0.26786,-26.25 -0.26784,-26.25 -125.08178,4.24264 -125.08178,-4.24264 -0.26785,26.25 -0.26785,26.25 -39.6679,0 -39.66789,0 z"
       id="path3437"
       inkscape:connector-curvature="0"
       sodipodi:nodetypes="ccccccccccccccccccccccccccccccccccccccccc" />
  </g>
  <g
     inkscape:groupmode="layer"
     id="layer3"
     inkscape:label="Weights"
     style="display:inline"
     transform="translate(-128.69342,-386.26764)">
    <rect
       id="rect3377"
       width="80"
       height="118.57143"
       x="157"
       y="558.79077" />
    <rect
       id="rect3377-8"
       width="80"
       height="118.57143"
       x="487.64685"
       y="558.7901" />
  </g>
  <g
     inkscape:label="Text shadow"
     inkscape:groupmode="layer"
     id="layer1"
     style="display:none"
     transform="translate(-128.69342,-386.26764)">
    <text
       xml:space="preserve"
       style="font-style:normal;font-weight:normal;font-size:76.69770813px;line-height:125%;font-family:sans-serif;letter-spacing:0px;word-spacing:0px;fill:#000000;fill-opacity:1;stroke:none;stroke-width:1px;stroke-linecap:butt;stroke-linejoin:miter;stroke-opacity:1"
       x="369.85754"
       y="782.53961"
       id="text3336"
       sodipodi:linespacing="125%"><tspan
         sodipodi:role="line"
         x="369.85754"
         y="782.53961"
         id="tspan3346"
         style="text-align:center;text-anchor:middle">gymcoachbob</tspan></text>
    <flowRoot
       xml:space="preserve"
       id="flowRoot3352"
       style="font-style:normal;font-weight:normal;font-size:40px;line-height:125%;font-family:sans-serif;letter-spacing:0px;word-spacing:0px;fill:#000000;fill-opacity:1;stroke:none;stroke-width:1px;stroke-linecap:butt;stroke-linejoin:miter;stroke-opacity:1"><flowRegion
         id="flowRegion3354"><rect
           id="rect3356"
           width="11.616755"
           height="43.941635"
           x="270.21582"
           y="193.22746" /></flowRegion><flowPara
         id="flowPara3358" /></flowRoot>    <path
       style="fill:#666666"
       d="m 201.04674,761.5889 0,-20.875 3.36774,0 3.36775,0 0.0697,3.25091 0.0698,3.25091 1.21382,-1.6409 c 2.84736,-3.84921 7.09357,-5.86832 12.28618,-5.84217 5.24328,0.0264 9.25232,2.50909 11.54607,7.15016 0.79459,1.60775 0.97649,1.82835 1.19555,1.44995 0.14211,-0.24547 0.90803,-1.32143 1.70204,-2.39102 3.0143,-4.0605 7.37517,-6.22784 12.53088,-6.22784 6.67643,0 10.96454,3.52715 12.95429,10.65546 0.53336,1.91075 0.55237,2.41908 0.6372,17.03204 l 0.0874,15.0625 -3.38923,0 -3.38923,0 -0.002,-13.8125 c -0.001,-8.3114 -0.1051,-14.45969 -0.26103,-15.4375 -0.29227,-1.83279 -1.32388,-4.23083 -2.33365,-5.42473 -1.03254,-1.22083 -3.03393,-2.0865 -5.19161,-2.24555 -5.5539,-0.40941 -9.95002,2.4245 -11.71386,7.5512 -0.78458,2.28041 -0.99352,6.09514 -0.99583,18.18158 l -0.002,11.1875 -3.23206,0 -3.23205,0 -0.097,-14.4375 c -0.0845,-12.57175 -0.15114,-14.62382 -0.51586,-15.8792 -0.91732,-3.15744 -2.27617,-4.94298 -4.54802,-5.97616 -1.62569,-0.73932 -5.50256,-0.81336 -7.65773,-0.14624 -3.06003,0.94721 -5.83291,3.86972 -7.02265,7.40161 -0.5486,1.62858 -0.56164,1.94167 -0.63922,15.34999 l -0.0792,13.6875 -3.36311,0 -3.3631,0 0,-20.875 z"
       id="path4255"
       inkscape:connector-curvature="0" />
    <path
       style="fill:#666666"
       d="m 118.50307,798.20122 c -2.59959,-0.2313 -5.51262,-0.80741 -7.64383,-1.51172 l -1.5625,-0.51637 0,-3.23322 0,-3.23321 1.4375,0.72422 c 4.48446,2.25931 10.58045,3.06511 15.05611,1.99019 6.12199,-1.47031 9.14736,-6.29551 8.9531,-14.2794 l -0.0717,-2.94718 -1.20557,1.59709 c -1.88275,2.49421 -4.07241,4.0081 -7.16943,4.95683 -1.53468,0.47012 -2.44221,0.57358 -5,0.56999 -2.83792,-0.004 -3.324,-0.0745 -5.29125,-0.76735 -7.03244,-2.4769 -11.25156,-9.35292 -11.63521,-18.96219 -0.32805,-8.21669 1.51093,-13.91754 5.932,-18.38929 3.01939,-3.054 6.55372,-4.47703 11.11946,-4.47703 5.18633,0 9.58467,2.08008 12.1773,5.75895 l 1.0727,1.52213 0.07,-3.14488 0.07,-3.14488 3.36753,0 3.36753,0 -0.002,19.3125 c -0.002,19.81892 -0.0962,22.2091 -1.01492,25.79043 -1.56301,6.09263 -5.61606,10.27486 -11.38967,11.75271 -3.08008,0.7884 -6.55584,0.99481 -10.63703,0.63168 l -5e-5,0 z m 6.48937,-21.49599 c 4.53336,-0.73567 7.55331,-3.76354 9.10123,-9.12511 0.50541,-1.7506 0.57457,-2.53502 0.57231,-6.49122 -0.002,-3.5914 -0.0966,-4.85335 -0.46846,-6.25 -1.4799,-5.55887 -4.70181,-8.75949 -9.51591,-9.45303 -4.95197,-0.7134 -9.16713,1.39679 -11.4365,5.72535 -1.66913,3.18368 -2.36361,7.72023 -1.93398,12.63337 0.40268,4.60491 1.77146,7.98492 4.14121,10.22614 2.53625,2.39868 5.81618,3.33881 9.5401,2.7345 z"
       id="path4257"
       inkscape:connector-curvature="0" />
    <path
       style="fill:#666666"
       d="m 154.79674,795.75232 0,-2.71159 3.00342,-0.16149 c 5.31769,-0.28593 6.18726,-1.04616 8.88509,-7.76793 l 1.2981,-3.23426 -1.65041,-4.01908 c -0.90773,-2.21049 -4.70118,-11.44407 -8.4299,-20.51907 l -6.77947,-16.5 3.26147,-0.0701 c 1.79381,-0.0386 3.38059,-0.0244 3.52617,0.0315 0.14558,0.0559 3.18876,7.42661 6.76261,16.37942 3.57386,8.95282 6.55417,16.27785 6.62292,16.27785 0.0687,0 3.04906,-7.32503 6.62292,-16.27785 3.57385,-8.95281 6.61703,-16.32355 6.76261,-16.37942 0.14558,-0.0559 1.74022,-0.07 3.54363,-0.0315 l 3.27894,0.0701 -1.92978,4.75 c -1.06138,2.6125 -5.51048,13.66364 -9.88689,24.55809 -4.37896,10.9008 -8.47634,20.72814 -9.11177,21.85411 -2.90069,5.13993 -5.49689,6.44546 -12.84216,6.45784 l -2.9375,0.005 0,-2.71158 z"
       id="path4259"
       inkscape:connector-curvature="0" />
    <path
       style="fill:#666666"
       d="m 288.22167,782.96499 c -7.09418,-1.4953 -12.4,-6.69731 -14.44013,-14.15762 -0.75693,-2.76791 -0.95596,-9.2605 -0.38458,-12.54548 1.18767,-6.82824 5.30546,-12.34641 11.05102,-14.80924 5.50822,-2.3611 14.25252,-2.2299 20.13844,0.30215 l 1.21032,0.52067 0,2.96921 c 0,1.63307 -0.0445,2.96922 -0.0988,2.96922 -0.0544,0 -0.86998,-0.32689 -1.8125,-0.72643 -6.56339,-2.78219 -12.90869,-2.85242 -17.39991,-0.19258 -2.5329,1.50007 -4.75847,4.60488 -5.72424,7.98569 -0.51333,1.79699 -0.58808,2.5979 -0.58876,6.30832 -6.7e-4,3.69703 0.0742,4.50907 0.5757,6.24122 1.51473,5.23209 4.73846,8.49354 9.54853,9.66027 1.83735,0.44566 6.44088,0.39172 8.6885,-0.10181 1.45784,-0.32011 4.25804,-1.32718 6.499,-2.33732 0.24046,-0.10839 0.3125,0.5506 0.3125,2.85874 l 0,2.99961 -1.0625,0.43484 c -4.94821,2.02513 -11.529,2.67097 -16.51257,1.62054 z"
       id="path4261"
       inkscape:connector-curvature="0" />
    <path
       style="fill:#666666"
       d="m 330.67174,783.30033 c -7.41928,-1.17511 -12.77909,-6.24405 -14.74259,-13.94252 -1.16398,-4.56372 -1.1594,-10.76826 0.0115,-15.61986 0.2189,-0.90698 0.95969,-2.81575 1.64619,-4.2417 1.0584,-2.19842 1.5589,-2.90576 3.29153,-4.65179 1.63111,-1.64371 2.47204,-2.26782 4.16834,-3.09357 3.25838,-1.58617 4.76381,-1.89978 9.125,-1.90095 3.1596,-8.4e-4 4.0631,0.0889 5.73873,0.56977 5.84139,1.67648 10.10424,5.90042 12.02794,11.91815 1.74032,5.4441 1.77923,12.78206 0.0968,18.25104 -1.49534,4.86074 -4.75075,8.89787 -8.73845,10.83679 -3.04234,1.47927 -4.58592,1.82731 -8.5,1.91651 -1.85625,0.0423 -3.7125,0.0235 -4.125,-0.0419 z m 5.5,-5.58467 c 4.58584,-0.75005 8.06382,-4.48143 9.35946,-10.04136 0.68918,-2.95744 0.87045,-6.14107 0.5173,-9.0854 -0.91451,-7.62472 -4.54854,-12.3294 -10.12676,-13.11026 -6.38842,-0.89428 -11.25806,2.75532 -13.15648,9.86026 -0.74047,2.77124 -0.80608,9.06337 -0.12513,12 1.76335,7.60446 6.81175,11.47586 13.53161,10.37676 z"
       id="path4263"
       inkscape:connector-curvature="0" />
    <path
       style="fill:#666666"
       d="m 371.84717,782.97521 c -3.71145,-1.00662 -6.67943,-3.30622 -8.15212,-6.31628 -1.32633,-2.71092 -1.72074,-6.5069 -1.01986,-9.81567 1.08461,-5.12037 4.74859,-8.48816 10.78408,-9.91228 1.90511,-0.44953 3.26778,-0.53937 9.809,-0.64671 l 7.59653,-0.12465 -0.13956,-1.84537 c -0.32885,-4.34814 -3.06182,-7.41744 -7.57265,-8.50459 -2.04291,-0.49236 -6.66897,-0.5472 -9.10585,-0.10794 -2.38862,0.43056 -4.88589,1.20318 -6.9375,2.14638 l -1.8125,0.83326 0,-3.0678 0,-3.0678 2.9375,-0.9014 c 4.79652,-1.47185 6.716,-1.77952 11.1875,-1.79321 4.76802,-0.0146 6.87768,0.39255 9.91756,1.91406 4.57335,2.28903 7.13528,6.54111 7.94844,13.19213 0.14745,1.20606 0.259,7.58558 0.259,14.8125 l 0,12.69406 -3.375,0 -3.375,0 -0.0118,-3.1875 -0.0117,-3.1875 -0.67576,0.8707 c -2.3617,3.04301 -4.54554,4.65941 -7.63641,5.65222 -2.86337,0.91974 -7.92383,1.09299 -10.61392,0.36339 l 0,0 z m 8.99976,-5.28758 c 6.00051,-1.25133 9.94981,-7.00737 9.94981,-14.50167 l 0,-2.04902 -5.8125,0.17515 c -6.48258,0.19535 -8.59304,0.42291 -10.85767,1.17077 -2.09701,0.6925 -3.3141,1.63602 -4.19273,3.25031 -0.6158,1.13142 -0.75515,1.71464 -0.84221,3.52501 -0.11643,2.4214 0.24824,3.89457 1.36185,5.50152 1.76327,2.5444 6.21663,3.79895 10.39345,2.92793 z"
       id="path4265"
       inkscape:connector-curvature="0" />
    <path
       style="fill:#666666"
       d="m 426.17174,783.32328 c -0.275,-0.0629 -1.11875,-0.23688 -1.875,-0.3867 -7.33985,-1.45407 -12.94338,-7.37166 -14.6515,-15.47268 -0.60377,-2.86346 -0.60107,-9.06044 0.005,-11.84184 1.76986,-8.12019 6.77627,-13.39049 14.56411,-15.33177 1.26078,-0.31428 2.78595,-0.42584 5.83223,-0.42662 4.46172,-10e-4 7.06566,0.44364 10.4375,1.78282 l 1.5625,0.62058 0,3.08609 0,3.08609 -1.81463,-0.86176 c -2.88721,-1.37113 -6.31554,-2.14853 -9.57055,-2.1702 -3.03174,-0.0202 -4.8047,0.3009 -6.80361,1.2321 -3.03884,1.41566 -5.49675,4.30639 -6.66642,7.84033 -1.2971,3.91897 -1.30487,10.11886 -0.0178,14.19322 2.35907,7.46775 9.4167,10.73053 18.50204,8.55356 1.92125,-0.46036 5.41096,-1.7973 6.05845,-2.32105 0.24682,-0.19965 0.3125,0.4044 0.3125,2.87387 l 0,3.12665 -1.8125,0.67226 c -3.49353,1.29578 -5.55312,1.67179 -9.6875,1.76861 -2.13125,0.0499 -4.1,0.0393 -4.375,-0.0236 l 0,-1e-5 z"
       id="path4267"
       inkscape:connector-curvature="0" />
    <path
       style="fill:#666666"
       d="m 454.04674,753.4639 0,-29 3.25,0 3.25,0 0.0112,11.4375 0.0112,11.4375 0.91336,-1.125 c 3.67925,-4.53177 7.58522,-6.49132 12.93917,-6.49132 4.26744,0 7.31923,1.14805 9.89482,3.72233 1.86221,1.86127 2.92388,3.79727 3.78052,6.89399 0.53759,1.94337 0.55573,2.42649 0.64069,17.0625 l 0.0874,15.0625 -3.24004,0 -3.24003,0 -0.12309,-14.0625 c -0.0724,-8.27041 -0.22916,-14.5273 -0.38061,-15.19096 -0.83098,-3.64126 -2.28646,-5.71311 -4.84264,-6.89337 -1.46316,-0.67559 -1.78468,-0.72689 -4.45205,-0.71038 -2.35917,0.0146 -3.13243,0.11857 -4.3098,0.57946 -4.29307,1.68052 -6.75966,5.09168 -7.43177,10.27775 -0.13364,1.03125 -0.24647,7.30312 -0.25071,13.9375 l -0.008,12.0625 -3.25,0 -3.25,0 0,-29 z"
       id="path4269"
       inkscape:connector-curvature="0" />
    <path
       style="fill:#666666"
       d="m 614.32945,783.09461 c -3.38373,-0.76814 -6.74563,-3.06176 -8.45592,-5.76897 -0.38599,-0.61097 -0.78617,-1.11105 -0.88929,-1.1113 -0.10313,-2.4e-4 -0.1875,1.40581 -0.1875,3.12456 l 0,3.125 -3.25,0 -3.25,0 0,-29 0,-29 3.25,0 3.25,0 0,11.25 c 0,6.1875 0.0882,11.25 0.1961,11.25 0.10785,0 0.39194,-0.33155 0.63131,-0.73677 0.80208,-1.35782 2.94767,-3.49232 4.37929,-4.35667 4.22064,-2.54822 10.78984,-2.837 15.1683,-0.66677 5.758,2.854 9.40079,9.0896 10.16543,17.40079 0.68842,7.48278 -1.13769,14.6338 -4.89315,19.16145 -2.06251,2.4866 -4.11703,3.92848 -7.12549,5.00075 -1.86451,0.66453 -6.72518,0.84186 -8.98908,0.32793 z m 6.54654,-5.87705 c 2.07197,-0.78665 4.33038,-2.96296 5.51003,-5.30973 1.61607,-3.21499 1.99367,-5.16936 1.99367,-10.31893 0,-5.04035 -0.36901,-7.02964 -1.87813,-10.125 -0.94291,-1.934 -3.32135,-4.41496 -4.95482,-5.16841 -3.16199,-1.45849 -6.95848,-1.38326 -10.06066,0.19935 -2.43835,1.24395 -4.90929,4.78847 -5.81103,8.33581 -0.96022,3.77736 -0.95813,9.77185 0.005,13.51874 1.25595,4.88748 4.25271,8.26309 8.24197,9.28389 1.80671,0.46231 5.17136,0.26117 6.95425,-0.41572 z"
       id="path4271"
       inkscape:connector-curvature="0" />
    <path
       style="fill:#666666"
       d="m 563.26082,783.1025 c -6.72463,-1.40595 -11.55032,-6.00076 -13.54921,-12.90094 -2.01545,-6.9574 -1.34088,-15.61723 1.66409,-21.36266 1.37983,-2.63821 4.32471,-5.63633 6.8073,-6.93037 3.07605,-1.60338 5.17958,-2.05974 9.48874,-2.05859 2.76062,7.4e-4 4.17873,0.11518 5.375,0.43376 6.80615,1.81254 11.5387,7.08828 13.16874,14.6802 0.64337,2.99646 0.64346,10.25273 1.8e-4,13.25 -1.6158,7.52859 -6.22898,12.79921 -12.79392,14.61721 -2.07396,0.57433 -7.96001,0.73155 -10.16092,0.27139 z m 6.41092,-5.38684 c 5.81876,-0.95171 9.54089,-6.3217 10.02894,-14.46896 0.58561,-9.77577 -3.49413,-16.82881 -10.27894,-17.77022 -5.1365,-0.7127 -9.4676,1.60042 -11.81024,6.30752 -2.75802,5.54173 -2.65144,14.76738 0.23363,20.22201 1.8536,3.5045 5.52372,5.77596 9.57661,5.92703 0.4125,0.0154 1.425,-0.0824 2.25,-0.21738 z"
       id="path4273"
       inkscape:connector-curvature="0" />
    <path
       style="fill:#666666"
       d="m 518.84889,783.08261 c -3.39302,-0.73677 -6.1787,-2.53386 -8.20181,-5.29112 l -1.22534,-1.67 -0.07,3.1712 -0.07,3.17121 -3.36753,0 -3.36753,0 0,-29 0,-29 3.375,0 3.375,0 0.0139,11.3125 0.0139,11.3125 0.54861,-0.74338 c 1.11259,-1.50759 3.27579,-3.64507 4.45419,-4.40125 4.10395,-2.6335 10.79177,-2.95298 15.30499,-0.73113 4.42366,2.17776 7.98128,7.02196 9.46708,12.89077 0.49886,1.97045 0.56583,2.85638 0.56583,7.48499 0,6.24459 -0.37835,8.21128 -2.35662,12.25 -1.81766,3.71084 -4.4858,6.58122 -7.58922,8.16446 -2.66071,1.3574 -7.41556,1.82947 -10.87049,1.07925 z m 4.64521,-5.35873 c 6.56691,-1.24539 10.47061,-9.3178 9.3146,-19.2615 -0.68195,-5.86588 -2.965,-10.09959 -6.43173,-11.92703 -5.09477,-2.68564 -11.25209,-1.11832 -14.30657,3.64168 -3.53966,5.51608 -3.67895,16.46005 -0.28499,22.39206 0.82472,1.44148 2.96578,3.59985 4.20837,4.24242 1.99602,1.03218 4.96449,1.39328 7.50032,0.91237 z"
       id="path4275"
       inkscape:connector-curvature="0" />
  </g>
  <g
     id="g3441"
     inkscape:groupmode="layer"
     inkscape:label="Text foreground"
     style="display:none"
     transform="translate(-128.69342,-386.26764)">
    <text
       sodipodi:linespacing="125%"
       id="text3443"
       y="780.53961"
       x="367.85754"
       style="font-style:normal;font-weight:normal;font-size:76.69770813px;line-height:125%;font-family:sans-serif;letter-spacing:0px;word-spacing:0px;fill:#000000;fill-opacity:1;stroke:none;stroke-width:1px;stroke-linecap:butt;stroke-linejoin:miter;stroke-opacity:1"
       xml:space="preserve"><tspan
         style="text-align:center;text-anchor:middle"
         id="tspan3445"
         y="780.53961"
         x="367.85754"
         sodipodi:role="line">gymcoachbob</tspan></text>
    <flowRoot
       style="font-style:normal;font-weight:normal;font-size:40px;line-height:125%;font-family:sans-serif;letter-spacing:0px;word-spacing:0px;fill:#000000;fill-opacity:1;stroke:none;stroke-width:1px;stroke-linecap:butt;stroke-linejoin:miter;stroke-opacity:1"
       id="flowRoot3447"
       xml:space="preserve"><flowRegion
         id="flowRegion3449"><rect
           y="193.22746"
           x="270.21582"
           height="43.941635"
           width="11.616755"
           id="rect3451" /></flowRegion><flowPara
         id="flowPara3453" /></flowRoot>  </g>
</svg>
