<?xml version="1.0" encoding="UTF-8" standalone="no"?>
<!-- Created with Inkscape (http://www.inkscape.org/) -->

<svg
   xmlns:dc="http://purl.org/dc/elements/1.1/"
   xmlns:cc="http://creativecommons.org/ns#"
   xmlns:rdf="http://www.w3.org/1999/02/22-rdf-syntax-ns#"
   xmlns:svg="http://www.w3.org/2000/svg"
   xmlns="http://www.w3.org/2000/svg"
   xmlns:sodipodi="http://sodipodi.sourceforge.net/DTD/sodipodi-0.dtd"
   xmlns:inkscape="http://www.inkscape.org/namespaces/inkscape"
   width="288.99554mm"
   height="141.11111mm"
   viewBox="0 0 1024 500.00001"
   id="svg2"
   version="1.1"
   inkscape:version="0.91 r13725"
   sodipodi:docname="feature_graphic.svg">
  <defs
     id="defs4" />
  <sodipodi:namedview
     id="base"
     pagecolor="#ffffff"
     bordercolor="#666666"
     borderopacity="1.0"
     inkscape:pageopacity="0.0"
     inkscape:pageshadow="2"
     inkscape:zoom="0.35"
     inkscape:cx="287.85714"
     inkscape:cy="139.99999"
     inkscape:document-units="px"
     inkscape:current-layer="layer1"
     showgrid="false"
     inkscape:showpageshadow="false"
     showborder="true"
     fit-margin-top="0"
     fit-margin-left="0"
     fit-margin-right="0"
     fit-margin-bottom="0"
     inkscape:window-width="1280"
     inkscape:window-height="730"
     inkscape:window-x="0"
     inkscape:window-y="1"
     inkscape:window-maximized="1" />
  <metadata
     id="metadata7">
    <rdf:RDF>
      <cc:Work
         rdf:about="">
        <dc:format>image/svg+xml</dc:format>
        <dc:type
           rdf:resource="http://purl.org/dc/dcmitype/StillImage" />
        <dc:title />
      </cc:Work>
    </rdf:RDF>
  </metadata>
  <g
     inkscape:label="Layer 1"
     inkscape:groupmode="layer"
     id="layer1"
     transform="translate(-60,-172.3622)"
     style="display:inline">
    <rect
       style="fill:#ececec;fill-opacity:1"
       id="rect3336"
       width="1024"
       height="500"
       x="60"
       y="172.3622" />
  </g>
  <g
     inkscape:groupmode="layer"
     id="layer2"
     inkscape:label="Layer 2">
    <ellipse
       style="display:inline;fill:#b3b3b3;fill-opacity:1"
       id="path3383"
       cx="544.13495"
       cy="295.96771"
       rx="188.79753"
       ry="19.798992" />
    <rect
       style="display:inline"
       id="rect3379"
       width="428.21432"
       height="22.857145"
       x="292.86261"
       y="233.09114" />
    <path
       style="display:inline;fill:#666666"
       d="m 301.11426,281.54768 0,-26.50001 -5.02337,0 -5.02336,0 0,-10.44521 0,-10.44521 4.7722,-0.30479 4.77219,-0.30479 0.27115,-21.25 0.27114,-21.25 39.64463,0 39.64461,0 0.27115,21.25 0.27115,21.25 125.08178,0 125.08179,0 0.27115,-21.25 0.27115,-21.25 39.64461,0 39.64463,0 0.27115,21.25 0.27115,21.25 4.77219,0.30479 4.7722,0.30479 0,10.44521 0,10.44521 -5.02336,0 -5.02337,0 0,26.50001 0,26.49999 -39.66791,0 -39.66789,0 -0.26786,-26.24999 -0.26784,-26.25001 -125.08179,4.24264 -125.08178,-4.24264 -0.26785,26.25001 -0.26785,26.24999 -39.6679,0 -39.66789,0 z"
       id="path3437"
       inkscape:connector-curvature="0"
       sodipodi:nodetypes="ccccccccccccccccccccccccccccccccccccccccc" />
    <rect
       style="display:inline"
       id="rect3377"
       width="80.000008"
       height="118.57143"
       x="298.7912"
       y="184.23396" />
    <rect
       style="display:inline"
       id="rect3377-8"
       width="80.000008"
       height="118.57143"
       x="629.43805"
       y="184.23329" />
  </g>
</svg>
